<svg xmlns="http://www.w3.org/2000/svg" viewBox="0 0 620 150" role="img" aria-labelledby="title desc">
<title id="title">BookEasy</title><desc id="desc">BookEasy professional home service logo</desc>
<defs>
 <linearGradient id="blue" x1="0" y1="0" x2="1" y2="1"><stop stop-color="#0B5CFF"/><stop offset="1" stop-color="#123BBA"/></linearGradient>
 <linearGradient id="green" x1="0" y1="0" x2="1" y2="1"><stop stop-color="#77F34A"/><stop offset="1" stop-color="#10B981"/></linearGradient>
</defs>
<g transform="translate(12 12)">
 <path d="M22 66 70 25l48 41v47H22z" fill="none" stroke="url(#blue)" stroke-width="13" stroke-linejoin="round"/>
 <path d="m7 67 63-55 63 55" fill="none" stroke="url(#blue)" stroke-width="13" stroke-linecap="round" stroke-linejoin="round"/>
 <path d="M56 78h28v35H56z" fill="url(#blue)"/>
 <path d="M19 113c-14-15-16-35-6-51 7-11 17-19 31-23-2 10 0 19 7 26 7 8 16 12 27 12-6 9-8 19-4 30-21 0-37 2-55 6z" fill="url(#green)"/>
 <path d="M119 105c15-12 30-14 46-9-7 11-18 19-31 22-11 3-23 2-33-2 5-5 11-8 18-11z" fill="url(#green)"/>
</g>
<text x="168" y="101" font-family="Inter,Arial,sans-serif" font-size="72" font-weight="800" letter-spacing="-3" fill="url(#blue)">Book</text>
<text x="369" y="101" font-family="Inter,Arial,sans-serif" font-size="72" font-weight="800" letter-spacing="-3" fill="url(#green)">Easy</text>
</svg>
